<svg width="16" height="16" viewBox="0 0 16 16" fill="none" xmlns="http://www.w3.org/2000/svg">
<g clip-path="url(#clip0_645_75624)">
<path d="M10.7 10.8344C10.5752 10.958 10.4067 11.0274 10.2311 11.0274C10.0555 11.0274 9.88694 10.958 9.76214 10.8344L7.53911 8.60916C7.41444 8.48394 7.34417 8.31454 7.34355 8.13775V3.99497C7.35653 3.82746 7.43217 3.67102 7.55536 3.55691C7.67855 3.44279 7.84021 3.3794 8.00806 3.3794C8.17591 3.3794 8.33758 3.44279 8.46077 3.55691C8.58396 3.67102 8.6596 3.82746 8.67257 3.99497V7.85411L10.704 9.88355C10.8269 10.0097 10.8957 10.1788 10.8957 10.355C10.8957 10.5311 10.8269 10.7003 10.704 10.8264M8.01804 0.0199783C6.43696 0.0128613 4.88939 0.475911 3.57158 1.3504C2.25378 2.2249 1.22511 3.47143 0.616037 4.93193C0.00696355 6.39242 -0.155076 8.00108 0.150469 9.55388C0.456014 11.1067 1.21538 12.5337 2.33226 13.6539C3.44914 14.7741 4.87321 15.5371 6.42389 15.846C7.97456 16.155 9.58197 15.996 11.0423 15.3893C12.5025 14.7826 13.7499 13.7554 14.6262 12.4381C15.5025 11.1207 15.9682 9.57257 15.9643 7.98994C15.959 5.88055 15.1206 3.85883 13.632 2.36577C12.1434 0.872706 10.1254 0.029464 8.01804 0.0199783Z" fill="#D5D8DC"/>
</g>
<defs>
<clipPath id="clip0_645_75624">
<rect width="16" height="16" fill="white"/>
</clipPath>
</defs>
</svg>
