<svg width="24" height="24" viewBox="0 0 24 24" fill="none" xmlns="http://www.w3.org/2000/svg">
<path d="M20.5 2.51724V6.61379V13.0241V21.4828C20.5 22.0698 20.0552 22.5 19.56 22.5H4.44C3.94484 22.5 3.5 22.0698 3.5 21.4828V2.51724C3.5 1.93017 3.94484 1.5 4.44 1.5H19.56C20.0552 1.5 20.5 1.93017 20.5 2.51724Z" stroke="#1B222F"/>
<path d="M13.4545 14.9368H13.9182C14.0562 14.9368 14.1252 15.0058 14.1252 15.1438V17.7694C14.1252 17.9074 14.0562 17.9765 13.9182 17.9765H13.4545C13.3164 17.9765 13.2474 17.9074 13.2474 17.7694V15.1438C13.2474 15.0058 13.3164 14.9368 13.4545 14.9368Z" fill="#1B222F"/>
<path d="M15.0255 14.2147H15.4893C15.6273 14.2147 15.6963 14.2837 15.6963 14.4218V17.7696C15.6963 17.9076 15.6273 17.9766 15.4893 17.9766H15.0255C14.8875 17.9766 14.8185 17.9076 14.8185 17.7696V14.4218C14.8185 14.2837 14.8875 14.2147 15.0255 14.2147Z" fill="#1B222F"/>
<path d="M16.4497 15.6924H16.9135C17.0515 15.6924 17.1205 15.7614 17.1205 15.8994V17.7694C17.1205 17.9074 17.0515 17.9764 16.9135 17.9764H16.4497C16.3117 17.9764 16.2427 17.9074 16.2427 17.7694V15.8994C16.2427 15.7614 16.3117 15.6924 16.4497 15.6924Z" fill="#1B222F"/>
<path d="M15.2479 13.6462C15.2539 13.6479 15.2604 13.6474 15.2661 13.6448C15.2718 13.6423 15.2765 13.6378 15.2792 13.6321C15.2868 13.6137 15.249 13.5133 15.1903 13.4544L15.1874 13.4519C15.1759 13.4389 15.1632 13.427 15.1493 13.4165C14.6808 13.0501 14.1573 12.7601 13.5982 12.5571C13.567 12.5457 13.5357 12.5349 13.5045 12.524C13.7155 12.3873 13.9114 12.2287 14.0892 12.0508C14.5849 11.5551 14.9224 10.9236 15.0592 10.236C15.196 9.54842 15.1258 8.83574 14.8575 8.18807C14.5892 7.5404 14.1349 6.98683 13.552 6.59735C12.9691 6.20788 12.2838 6 11.5828 6C10.8817 6 10.1964 6.20788 9.61354 6.59735C9.03065 6.98683 8.57633 7.5404 8.30805 8.18807C8.03977 8.83574 7.96957 9.54842 8.10633 10.236C8.24308 10.9236 8.58066 11.5551 9.07636 12.0508C9.26941 12.2441 9.48399 12.4145 9.71589 12.5588C8.68372 12.9364 7.78328 13.6053 7.12376 14.4845C6.46423 15.3637 6.07396 16.4154 6.00026 17.5119C5.99918 17.5286 6.00144 17.5452 6.0069 17.561C6.01236 17.5767 6.0209 17.5912 6.03204 17.6036C6.04318 17.616 6.05667 17.626 6.07174 17.6331C6.08681 17.6402 6.10315 17.6442 6.11979 17.6449L6.74714 17.6723C6.77983 17.6737 6.81178 17.6622 6.83612 17.6403C6.86045 17.6184 6.87524 17.5879 6.87729 17.5552C6.92974 16.8149 7.15321 16.0968 7.53015 15.4574C7.90709 14.818 8.4272 14.2748 9.04961 13.8705C9.67201 13.4662 10.3797 13.2117 11.1171 13.1272C11.8545 13.0427 12.6014 13.1304 13.2992 13.3833C13.7523 13.548 13.9228 13.5968 14.2903 13.8769C14.2931 13.8801 14.2963 13.8831 14.2996 13.8857L14.3582 13.9304C14.3582 13.9304 14.3746 13.9523 14.404 13.9304C14.4334 13.9085 14.7284 13.646 15.2356 13.6468C15.2397 13.6463 15.2438 13.646 15.2479 13.6462ZM11.5824 12.2105C10.112 12.2105 8.91573 11.0143 8.91573 9.54382C8.91573 8.07335 10.112 6.87679 11.5824 6.87679C13.0529 6.87679 14.2492 8.07304 14.2492 9.54351C14.2492 11.014 13.0529 12.2105 11.5824 12.2105Z" fill="#1B222F"/>
</svg>
