<svg width="24" height="24" viewBox="0 0 24 24" fill="none" xmlns="http://www.w3.org/2000/svg">
<path d="M17.4138 16.5518H7.55175C7.23693 16.5518 6.98279 16.8059 6.98279 17.1207C6.98279 17.4355 7.23693 17.6897 7.55175 17.6897H17.4138C17.7287 17.6897 17.9828 17.4355 17.9828 17.1207C17.9828 16.8059 17.7249 16.5518 17.4138 16.5518ZM14.2124 12.4552H7.55175C7.23693 12.4552 6.98279 12.7093 6.98279 13.0242C6.98279 13.339 7.23693 13.5931 7.55175 13.5931H14.2162C14.5311 13.5931 14.7852 13.339 14.7852 13.0242C14.7814 12.7093 14.5273 12.4552 14.2124 12.4552Z" fill="#1B222F"/>
<path d="M12.1036 2.13793V6.92862C12.1036 7.01965 12.0011 7.07655 11.9253 7.02345L10.6736 6.13966L10.2374 5.83241C10.1046 5.74138 9.93011 5.74138 9.80114 5.83241L9.36494 6.13966L8.11321 7.02345C8.03735 7.07655 7.93494 7.02345 7.93494 6.92862V2.13793H12.1036ZM13.2415 1H6.79321V8.61276C6.79321 8.92 7.13839 9.09828 7.39252 8.92379L9.80114 7.22448C9.9339 7.13345 10.1084 7.13345 10.2374 7.22448L12.646 8.92379C12.8963 9.10207 13.2453 8.92 13.2453 8.61276L13.2415 1Z" fill="#1B222F"/>
<path d="M20.5 2.51724V6.61379V13.0241V21.4828C20.5 22.0698 20.0552 22.5 19.56 22.5H4.44C3.94484 22.5 3.5 22.0698 3.5 21.4828V2.51724C3.5 1.93017 3.94484 1.5 4.44 1.5H19.56C20.0552 1.5 20.5 1.93017 20.5 2.51724Z" stroke="#1B222F"/>
</svg>
