<svg width="24" height="24" viewBox="0 0 24 24" fill="none" xmlns="http://www.w3.org/2000/svg">
<path d="M13.4482 19H10.569C10.2541 19 10 19.2541 10 19.569C10 19.8838 10.2541 20.1379 10.569 20.1379H13.4482C13.7631 20.1379 14.0172 19.8838 14.0172 19.569C14.0172 19.2541 13.7593 19 13.4482 19Z" fill="#1B222F"/>
<path d="M20.5 2.51724V6.61379V13.0241V21.4828C20.5 22.0698 20.0552 22.5 19.56 22.5H4.44C3.94484 22.5 3.5 22.0698 3.5 21.4828V2.51724C3.5 1.93017 3.94484 1.5 4.44 1.5H19.56C20.0552 1.5 20.5 1.93017 20.5 2.51724Z" stroke="#1B222F"/>
<path d="M15.1292 5.70025C15.9154 5.59668 16.6967 5.88362 17.228 6.44155C18.2617 7.52717 18.2984 9.38228 17.0882 10.7066C16.9064 10.904 16.716 11.0926 16.5176 11.272C16.3558 11.4201 15.8255 11.8822 15.7819 11.9213C14.8716 12.7329 14.5319 13.2983 14.5319 14.2752C14.5319 15.3802 15.3261 16.0587 17.0429 16.3246C17.0855 16.3312 17.1265 16.3464 17.1634 16.3694C17.2004 16.3924 17.2326 16.4226 17.2582 16.4585C17.2838 16.4943 17.3024 16.5351 17.3128 16.5783C17.3232 16.6216 17.3253 16.6666 17.3189 16.7107C17.3125 16.7548 17.2978 16.7972 17.2756 16.8354C17.2534 16.8736 17.2241 16.9069 17.1895 16.9334C17.1549 16.96 17.1155 16.9791 17.0737 16.9899C17.0319 17.0007 16.9884 17.0029 16.9458 16.9963C14.9421 16.6862 13.8756 15.7748 13.8756 14.2752C13.8756 13.0623 14.3127 12.3349 15.3533 11.4068C15.4025 11.363 15.9282 10.9046 16.0834 10.763C16.2671 10.5971 16.4434 10.4226 16.6117 10.24C17.5765 9.18397 17.5483 7.74552 16.7607 6.91831C16.4987 6.64629 16.1631 6.46298 15.7983 6.39265L16.0444 6.64733C16.3003 6.9122 16.3108 7.33158 16.066 7.5849L9.21102 14.6787C9.08895 14.805 8.85597 14.9452 8.68468 14.9938L6.47427 15.6186C6.13726 15.7137 5.93414 15.5055 6.01946 15.1578L6.59273 12.8212C6.63539 12.647 6.77026 12.4021 6.89069 12.2775L13.7457 5.18376C13.9898 4.93111 14.3938 4.93926 14.6517 5.20651L15.1292 5.70025ZM7.35469 12.7577C7.31006 12.8039 7.23 12.9502 7.21457 13.013L6.76632 14.84L8.48844 14.353C8.5567 14.3336 8.69846 14.2491 8.74702 14.1985L15.602 7.10474L14.2097 5.66426L7.35469 12.758V12.7577ZM13.724 6.16683L15.116 7.60765L14.652 8.08781L13.2597 6.64733L13.7237 6.16683H13.724ZM8.15504 11.9294L9.54705 13.3706L9.08305 13.8508L7.69072 12.4099L8.15504 11.9298V11.9294Z" fill="#1B222F" stroke="#1B222F" stroke-width="0.1"/>
</svg>
