<svg width="24" height="24" viewBox="0 0 24 24" fill="none" xmlns="http://www.w3.org/2000/svg">
<path d="M20.5 2.51724V6.61379V13.0241V21.4828C20.5 22.0698 20.0552 22.5 19.56 22.5H4.44C3.94484 22.5 3.5 22.0698 3.5 21.4828V2.51724C3.5 1.93017 3.94484 1.5 4.44 1.5H19.56C20.0552 1.5 20.5 1.93017 20.5 2.51724Z" stroke="#1B222F"/>
<path d="M12.1037 11.2621L12.1042 11.2623L13.392 11.9387L13.1459 10.5043L13.1459 10.5042L12.1037 11.2621ZM12.1037 11.2621C11.9982 11.2068 11.8809 11.1779 11.7618 11.1779C11.714 11.1779 11.6666 11.1826 11.6201 11.1917M12.1037 11.2621L11.6201 11.1917M10.1246 11.9383L10.3704 10.5061L9.7707 12.4183L9.64966 12.1881L10.1246 11.9383ZM10.1246 11.9383L10.0342 12.4654L9.77653 12.4212L11.6464 11.6948L11.4198 11.2621C11.483 11.229 11.5505 11.2053 11.6201 11.1917M10.1246 11.9383L11.4121 11.2612L11.5634 11.1817L11.6201 11.1917M11.1126 8.22086L11.7583 6.91215L10.3707 10.5042L10.3706 10.5049C10.4124 10.2642 10.3315 10.0206 10.1595 9.85237L10.1588 9.85174L9.11462 8.83408L10.5582 8.62398L10.559 8.62386C10.677 8.60649 10.7889 8.56077 10.8853 8.49062C10.9817 8.42047 11.0597 8.32799 11.1125 8.2211L11.1126 8.22086Z" stroke="black"/>
<path d="M7.49829 15.6136C7.43407 15.6104 7.36986 15.6202 7.30956 15.6425C7.24926 15.6649 7.19412 15.6992 7.14752 15.7435C7.10091 15.7878 7.0638 15.8411 7.03844 15.9002C7.01308 15.9593 7 16.023 7 16.0873C7 16.1516 7.01308 16.2152 7.03844 16.2743C7.0638 16.3334 7.10091 16.3867 7.14752 16.431C7.19412 16.4753 7.24926 16.5096 7.30956 16.532C7.36986 16.5543 7.43407 16.5641 7.49829 16.5609H16.0253C16.0895 16.5641 16.1538 16.5543 16.2141 16.532C16.2744 16.5096 16.3295 16.4753 16.3761 16.431C16.4227 16.3867 16.4598 16.3334 16.4852 16.2743C16.5105 16.2152 16.5236 16.1516 16.5236 16.0873C16.5236 16.023 16.5105 15.9593 16.4852 15.9002C16.4598 15.8411 16.4227 15.7878 16.3761 15.7435C16.3295 15.6992 16.2744 15.6649 16.2141 15.6425C16.1538 15.6202 16.0895 15.6104 16.0253 15.6136H7.49829ZM7.49829 18.2194C7.43407 18.2162 7.36986 18.226 7.30956 18.2483C7.24926 18.2707 7.19412 18.305 7.14752 18.3493C7.10091 18.3936 7.0638 18.4469 7.03844 18.506C7.01308 18.5651 7 18.6287 7 18.693C7 18.7573 7.01308 18.821 7.03844 18.8801C7.0638 18.9392 7.10091 18.9925 7.14752 19.0368C7.19412 19.0811 7.24926 19.1154 7.30956 19.1378C7.36986 19.1601 7.43407 19.1699 7.49829 19.1666H16.0253C16.0895 19.1699 16.1538 19.1601 16.2141 19.1378C16.2744 19.1154 16.3295 19.0811 16.3761 19.0368C16.4227 18.9925 16.4598 18.9392 16.4852 18.8801C16.5105 18.821 16.5236 18.7573 16.5236 18.693C16.5236 18.6287 16.5105 18.5651 16.4852 18.506C16.4598 18.4469 16.4227 18.3936 16.3761 18.3493C16.3295 18.305 16.2744 18.2707 16.2141 18.2483C16.1538 18.226 16.0895 18.2162 16.0253 18.2194H7.49829Z" fill="#1B222F"/>
</svg>
