<svg width="24" height="24" viewBox="0 0 24 24" fill="none" xmlns="http://www.w3.org/2000/svg">
<path d="M20.5 2.51724V6.61379V13.0241V21.4828C20.5 22.0698 20.0552 22.5 19.56 22.5H4.44C3.94484 22.5 3.5 22.0698 3.5 21.4828V2.51724C3.5 1.93017 3.94484 1.5 4.44 1.5H19.56C20.0552 1.5 20.5 1.93017 20.5 2.51724Z" stroke="#1B222F"/>
<path d="M11.5715 9V12.4286C11.5715 12.6857 11.7429 12.8571 12 12.8571C12.2572 12.8571 12.4286 12.6857 12.4286 12.4286V9C12.4286 8.74286 12.2572 8.57143 12 8.57143C11.7429 8.57143 11.5715 8.74286 11.5715 9ZM12 13.7143C11.7429 13.7143 11.5715 13.8857 11.5715 14.1429C11.5715 14.4 11.7429 14.5714 12 14.5714C12.2572 14.5714 12.4286 14.4 12.4286 14.1429C12.4286 13.8857 12.2572 13.7143 12 13.7143ZM16.9715 6.94286C15.1715 6.25714 13.7143 6 12 6C10.2857 6 8.82861 6.25714 7.02861 6.94286C6.94289 7.02857 6.85718 7.11429 6.85718 7.28571V12.6857C6.85718 14.9143 10.0286 17.0571 11.9143 18H12.0857C13.9715 17.0571 17.1429 14.9143 17.1429 12.6857V7.28571C17.1429 7.11429 17.0572 7.02857 16.9715 6.94286ZM16.2857 12.6C16.2857 14.0571 14.1429 15.8571 12 17.0571C9.85718 15.9429 7.71432 14.0571 7.71432 12.6V7.62857C9.17146 7.11429 10.4572 6.85714 12 6.85714C13.5429 6.85714 14.8286 7.11429 16.2857 7.62857V12.6Z" fill="#1B222F"/>
</svg>
