<svg width="24" height="24" viewBox="0 0 24 24" fill="none" xmlns="http://www.w3.org/2000/svg">
<path d="M20.5 2.51724V6.61379V13.0241V21.4828C20.5 22.0698 20.0552 22.5 19.56 22.5H4.44C3.94484 22.5 3.5 22.0698 3.5 21.4828V2.51724C3.5 1.93017 3.94484 1.5 4.44 1.5H19.56C20.0552 1.5 20.5 1.93017 20.5 2.51724Z" stroke="#1B222F"/>
<path d="M18.72 7.80878H5.28C5.24323 7.80878 5.20682 7.80154 5.17285 7.78747C5.13888 7.77339 5.10801 7.75277 5.08201 7.72677C5.05601 7.70077 5.03539 7.6699 5.02131 7.63593C5.00724 7.60196 5 7.56555 5 7.52878C5 7.49201 5.00724 7.4556 5.02131 7.42163C5.03539 7.38766 5.05601 7.35679 5.08201 7.33079C5.10801 7.30479 5.13888 7.28416 5.17285 7.27009C5.20682 7.25602 5.24323 7.24878 5.28 7.24878H18.72C18.7568 7.24878 18.7932 7.25602 18.8272 7.27009C18.8611 7.28416 18.892 7.30479 18.918 7.33079C18.944 7.35679 18.9646 7.38766 18.9787 7.42163C18.9928 7.4556 19 7.49201 19 7.52878C19 7.56555 18.9928 7.60196 18.9787 7.63593C18.9646 7.6699 18.944 7.70077 18.918 7.72677C18.892 7.75277 18.8611 7.77339 18.8272 7.78747C18.7932 7.80154 18.7568 7.80878 18.72 7.80878Z" fill="#1B222F" stroke="black" stroke-width="0.2"/>
<path d="M12 18.0092C11.9257 18.0092 11.8545 17.9797 11.802 17.9272C11.7495 17.8747 11.72 17.8035 11.72 17.7292V6.28C11.72 6.20574 11.7495 6.13452 11.802 6.08201C11.8545 6.0295 11.9257 6 12 6C12.0742 6 12.1455 6.0295 12.198 6.08201C12.2505 6.13452 12.28 6.20574 12.28 6.28V17.7292C12.28 17.8035 12.2505 17.8747 12.198 17.9272C12.1455 17.9797 12.0742 18.0092 12 18.0092Z" fill="#1B222F" stroke="black" stroke-width="0.2"/>
<path d="M14.52 18.2303H9.47995C9.40569 18.2303 9.33447 18.2008 9.28196 18.1483C9.22945 18.0958 9.19995 18.0246 9.19995 17.9503C9.19995 17.8761 9.22945 17.8049 9.28196 17.7524C9.33447 17.6998 9.40569 17.6703 9.47995 17.6703H14.52C14.5942 17.6703 14.6654 17.6998 14.7179 17.7524C14.7705 17.8049 14.8 17.8761 14.8 17.9503C14.8 18.0246 14.7705 18.0958 14.7179 18.1483C14.6654 18.2008 14.5942 18.2303 14.52 18.2303ZM16.648 14.9907C16.0697 14.99 15.5153 14.76 15.1064 14.3511C14.6975 13.9422 14.4675 13.3878 14.4668 12.8095C14.4668 11.7287 16.1972 8.04955 16.3932 7.61835C16.416 7.57027 16.4522 7.52972 16.4973 7.50145C16.5424 7.47318 16.5947 7.45837 16.648 7.45875C16.7007 7.4589 16.7524 7.47396 16.797 7.5022C16.8416 7.53044 16.8773 7.5707 16.9 7.61835C17.0988 8.03555 18.8292 11.7287 18.8292 12.8095C18.8277 13.3876 18.5974 13.9415 18.1887 14.3503C17.7799 14.759 17.226 14.9893 16.648 14.9907ZM16.648 8.40515C16.0376 9.74635 15.0268 12.1151 15.0268 12.8095C15.0268 13.2395 15.1976 13.6519 15.5016 13.9559C15.8056 14.2599 16.218 14.4307 16.648 14.4307C17.0779 14.4307 17.4903 14.2599 17.7943 13.9559C18.0983 13.6519 18.2692 13.2395 18.2692 12.8095C18.2692 12.1151 17.2584 9.74635 16.648 8.40515Z" fill="#1B222F" stroke="black" stroke-width="0.2"/>
<path d="M18.5494 13.0896H14.747C14.6727 13.0896 14.6015 13.0601 14.549 13.0076C14.4965 12.9551 14.467 12.8839 14.467 12.8096C14.467 12.7353 14.4965 12.6641 14.549 12.6116C14.6015 12.5591 14.6727 12.5296 14.747 12.5296H18.5494C18.6236 12.5296 18.6948 12.5591 18.7473 12.6116C18.7999 12.6641 18.8294 12.7353 18.8294 12.8096C18.8294 12.8839 18.7999 12.9551 18.7473 13.0076C18.6948 13.0601 18.6236 13.0896 18.5494 13.0896ZM7.55376 14.9908C6.9755 14.9901 6.42113 14.76 6.01224 14.3511C5.60334 13.9422 5.3733 13.3879 5.37256 12.8096C5.37256 11.7288 7.10296 8.0496 7.30176 7.6184C7.32469 7.57106 7.36048 7.53114 7.40505 7.5032C7.44962 7.47527 7.50116 7.46045 7.55376 7.46045C7.60636 7.46045 7.65789 7.47527 7.70246 7.5032C7.74703 7.53114 7.78283 7.57106 7.80576 7.6184C8.00456 8.0356 9.73496 11.7288 9.73496 12.8096C9.73422 13.3879 9.50418 13.9422 9.09528 14.3511C8.68639 14.76 8.13202 14.9901 7.55376 14.9908ZM7.55376 8.4052C6.94336 9.7464 5.93256 12.1152 5.93256 12.8096C5.93256 13.2396 6.10336 13.6519 6.4074 13.956C6.71143 14.26 7.12379 14.4308 7.55376 14.4308C7.98373 14.4308 8.39609 14.26 8.70012 13.956C9.00415 13.6519 9.17496 13.2396 9.17496 12.8096C9.17496 12.1152 8.16416 9.7464 7.55376 8.4052Z" fill="#1B222F" stroke="black" stroke-width="0.2"/>
<path d="M9.45496 13.0896H5.65256C5.5783 13.0896 5.50708 13.0601 5.45457 13.0076C5.40206 12.9551 5.37256 12.8839 5.37256 12.8096C5.37256 12.7353 5.40206 12.6641 5.45457 12.6116C5.50708 12.5591 5.5783 12.5296 5.65256 12.5296H9.45496C9.52922 12.5296 9.60044 12.5591 9.65295 12.6116C9.70546 12.6641 9.73496 12.7353 9.73496 12.8096C9.73496 12.8839 9.70546 12.9551 9.65295 13.0076C9.60044 13.0601 9.52922 13.0896 9.45496 13.0896Z" fill="#1B222F" stroke="black" stroke-width="0.2"/>
</svg>
