<svg width="120" height="40" viewBox="0 0 120 40" fill="none" xmlns="http://www.w3.org/2000/svg">
<path d="M20.8803 11.0173L21.8094 9.28775C21.8214 9.26567 21.829 9.24129 21.8316 9.21609C21.837 9.16526 21.8229 9.11425 21.7923 9.0741C21.7694 9.04383 21.7383 9.02132 21.7029 9.00945C21.6676 8.99757 21.6296 8.99688 21.5939 9.00744C21.5462 9.02157 21.5059 9.05464 21.4818 9.09944L20.5424 10.8483C19.7406 10.4855 18.8749 10.2982 17.9998 10.2982C17.1246 10.2982 16.2589 10.4855 15.4571 10.8483L14.5178 9.09944C14.4936 9.05464 14.4533 9.02157 14.4057 9.00744C14.3578 8.99344 14.3066 8.99942 14.2629 9.02411C14.2197 9.04909 14.1877 9.09079 14.174 9.1401C14.1672 9.16443 14.1651 9.18992 14.1678 9.2151C14.1706 9.24028 14.1782 9.26463 14.1901 9.28675L15.1195 11.0163C14.2356 11.4645 13.4882 12.1564 12.9596 13.0157C12.4311 13.875 12.1418 14.8684 12.1236 15.8868H23.8746C23.8564 14.8684 23.5671 13.875 23.0385 13.0157C22.51 12.1564 21.7627 11.4646 20.8787 11.0163L20.8803 11.0173ZM15.2883 13.67C15.1913 13.67 15.0965 13.6403 15.0158 13.5846C14.9352 13.5289 14.8723 13.4497 14.8351 13.357C14.8074 13.2878 14.7949 13.2131 14.7985 13.1383C14.8021 13.0634 14.8217 12.9904 14.8559 12.9243C14.8902 12.8583 14.9381 12.8009 14.9963 12.7564C15.0545 12.7119 15.1216 12.6812 15.1926 12.6668C15.2596 12.653 15.3285 12.6539 15.3951 12.6694C15.4617 12.6849 15.5244 12.7146 15.5792 12.7567C15.634 12.7987 15.6797 12.8521 15.7134 12.9135C15.747 12.9749 15.7679 13.0429 15.7747 13.1132C15.7815 13.1834 15.774 13.2543 15.7527 13.3214C15.7314 13.3885 15.6968 13.4502 15.6511 13.5026C15.6053 13.555 15.5495 13.5969 15.4872 13.6257C15.4249 13.6545 15.3575 13.6695 15.2893 13.6697L15.2883 13.67ZM20.7112 13.67C20.6142 13.67 20.5194 13.6403 20.4387 13.5846C20.358 13.5289 20.2951 13.4497 20.258 13.357C20.2174 13.2564 20.2093 13.1449 20.2347 13.0392C20.2601 12.9334 20.3178 12.8388 20.3991 12.7696C20.4805 12.7003 20.5812 12.6599 20.6864 12.6544C20.7917 12.6489 20.8958 12.6786 20.9835 12.7391C21.0711 12.7995 21.1377 12.8876 21.1733 12.9902C21.2088 13.0928 21.2116 13.2045 21.181 13.3089C21.1505 13.4132 21.0883 13.5046 21.0037 13.5696C20.9191 13.6346 20.8166 13.6697 20.7112 13.6697V13.67ZM12.1249 25.1532C12.1249 25.3461 12.1617 25.537 12.2331 25.7152C12.3045 25.8933 12.4092 26.0551 12.5411 26.1913C12.673 26.3275 12.8296 26.4355 13.0019 26.509C13.1742 26.5825 13.3588 26.6202 13.5452 26.6198H14.4884V29.6171C14.4884 29.9785 14.6272 30.3251 14.8742 30.5806C15.1211 30.8361 15.4561 30.9797 15.8053 30.9797C16.1546 30.9797 16.4896 30.8361 16.7365 30.5806C16.9835 30.3251 17.1223 29.9785 17.1223 29.6171V26.6184H18.8782V29.6158C18.8755 29.7966 18.9075 29.9761 18.9725 30.1439C19.0375 30.3117 19.1341 30.4644 19.2566 30.5933C19.3792 30.7221 19.5253 30.8244 19.6865 30.8942C19.8476 30.964 20.0206 31 20.1953 31C20.37 31 20.543 30.964 20.7041 30.8942C20.8653 30.8244 21.0114 30.7221 21.134 30.5933C21.2565 30.4644 21.3531 30.3117 21.4181 30.1439C21.483 29.9761 21.5151 29.7966 21.5124 29.6158V26.6184H22.4549C22.6413 26.6189 22.826 26.5813 22.9983 26.5078C23.1707 26.4343 23.3273 26.3263 23.4593 26.1901C23.5912 26.0539 23.6959 25.892 23.7674 25.7139C23.8388 25.5358 23.8756 25.3448 23.8756 25.1519V16.3674H12.1249V25.1532ZM10.3171 16.1344C9.96834 16.1342 9.63376 16.2771 9.38684 16.5319C9.13992 16.7867 9.00084 17.1325 9.00016 17.4933V23.1561C8.99743 23.3368 9.02948 23.5163 9.09444 23.6842C9.1594 23.852 9.25598 24.0047 9.37855 24.1335C9.50112 24.2624 9.64724 24.3647 9.80839 24.4345C9.96954 24.5043 10.1425 24.5403 10.3172 24.5403C10.4919 24.5403 10.6649 24.5043 10.8261 24.4345C10.9872 24.3647 11.1333 24.2624 11.2559 24.1335C11.3785 24.0047 11.4751 23.852 11.54 23.6842C11.605 23.5163 11.637 23.3368 11.6343 23.1561V17.4933C11.6334 17.1325 11.4943 16.7868 11.2473 16.532C11.0004 16.2772 10.6658 16.1343 10.3171 16.1344ZM25.6831 16.1344C25.3344 16.1342 24.9998 16.2771 24.7529 16.5319C24.506 16.7867 24.3669 17.1325 24.3662 17.4933V23.1561C24.3662 23.335 24.4003 23.5122 24.4664 23.6775C24.5326 23.8428 24.6296 23.993 24.7519 24.1196C24.8742 24.2461 25.0194 24.3464 25.1791 24.4149C25.3389 24.4834 25.5102 24.5186 25.6831 24.5186C25.856 24.5186 26.0273 24.4834 26.1871 24.4149C26.3468 24.3464 26.492 24.2461 26.6143 24.1196C26.7366 23.993 26.8336 23.8428 26.8998 23.6775C26.9659 23.5122 27 23.335 27 23.1561V17.4933C26.9993 17.1325 26.8602 16.7867 26.6133 16.5319C26.3664 16.2771 26.0318 16.1342 25.6831 16.1344Z" fill="#1B222F"/>
<rect x="0.5" y="0.5" width="119" height="39" rx="3.5" stroke="#49505E"/>
<path d="M34.3896 12V7.77246H35.8809C37.1348 7.77246 37.8818 8.54297 37.8818 9.87305V9.87891C37.8818 11.2148 37.1406 12 35.8809 12H34.3896ZM35.0459 11.4316H35.8193C36.7158 11.4316 37.2109 10.8838 37.2109 9.88477V9.87891C37.2109 8.88574 36.71 8.33789 35.8193 8.33789H35.0459V11.4316ZM40.3369 12.0703C39.1182 12.0703 38.3564 11.2324 38.3564 9.8877V9.88184C38.3564 8.54004 39.1211 7.70215 40.3369 7.70215C41.5557 7.70215 42.3174 8.54297 42.3174 9.88184V9.8877C42.3174 11.2295 41.5586 12.0703 40.3369 12.0703ZM40.3369 11.4902C41.1484 11.4902 41.6465 10.8633 41.6465 9.8877V9.88184C41.6465 8.90039 41.1396 8.28223 40.3369 8.28223C39.5371 8.28223 39.0244 8.89746 39.0244 9.88184V9.8877C39.0244 10.8721 39.5342 11.4902 40.3369 11.4902ZM43.6768 12L42.5371 7.77246H43.2197L44.0078 11.0859H44.0195L44.9131 7.77246H45.5342L46.4277 11.0859H46.4424L47.2305 7.77246H47.9131L46.7705 12H46.1406L45.2324 8.8125H45.2178L44.3066 12H43.6768ZM48.4346 12V7.77246H49.041L51.2148 10.8984H51.2324V7.77246H51.8828V12H51.2793L49.1025 8.86816H49.085V12H48.4346ZM52.665 12V7.77246H53.3213V11.4346H55.29V12H52.665ZM57.5049 12.0703C56.2861 12.0703 55.5244 11.2324 55.5244 9.8877V9.88184C55.5244 8.54004 56.2891 7.70215 57.5049 7.70215C58.7236 7.70215 59.4854 8.54297 59.4854 9.88184V9.8877C59.4854 11.2295 58.7266 12.0703 57.5049 12.0703ZM57.5049 11.4902C58.3164 11.4902 58.8145 10.8633 58.8145 9.8877V9.88184C58.8145 8.90039 58.3076 8.28223 57.5049 8.28223C56.7051 8.28223 56.1924 8.89746 56.1924 9.88184V9.8877C56.1924 10.8721 56.7021 11.4902 57.5049 11.4902ZM59.6582 12L61.1963 7.77246H61.9053L63.4404 12H62.752L62.3652 10.8574H60.7363L60.3467 12H59.6582ZM61.5449 8.47266L60.9121 10.3301H62.1865L61.5566 8.47266H61.5449ZM63.9092 12V7.77246H65.4004C66.6543 7.77246 67.4014 8.54297 67.4014 9.87305V9.87891C67.4014 11.2148 66.6602 12 65.4004 12H63.9092ZM64.5654 11.4316H65.3389C66.2354 11.4316 66.7305 10.8838 66.7305 9.88477V9.87891C66.7305 8.88574 66.2295 8.33789 65.3389 8.33789H64.5654V11.4316Z" fill="#1B222F"/>
<path d="M35.7969 30.1172C35.2188 30.1172 34.7656 29.6641 34.7656 29.0938C34.7656 28.5156 35.2188 28.0703 35.7969 28.0703C36.3672 28.0703 36.8203 28.5156 36.8203 29.0938C36.8203 29.6641 36.3672 30.1172 35.7969 30.1172ZM40.8438 30.1484C39.2031 30.1484 38.1016 29.1406 38.1016 27.6641V27.6484C38.1016 26.2188 39.2109 25.3438 41.1562 25.2266L43.3906 25.0938V24.4766C43.3906 23.5703 42.8047 23.0234 41.7578 23.0234C40.7812 23.0234 40.1797 23.4844 40.0391 24.1406L40.0234 24.2109H38.4297L38.4375 24.125C38.5547 22.7109 39.7812 21.625 41.8047 21.625C43.8125 21.625 45.0859 22.6875 45.0859 24.3359V30H43.3906V28.7031H43.3594C42.8828 29.5859 41.9297 30.1484 40.8438 30.1484ZM39.8047 27.625C39.8047 28.3438 40.3984 28.7969 41.3047 28.7969C42.4922 28.7969 43.3906 27.9922 43.3906 26.9219V26.2812L41.3828 26.4062C40.3672 26.4688 39.8047 26.9141 39.8047 27.6094V27.625ZM46.7266 32.7344V21.7812H48.4141V23.1953H48.4531C48.9453 22.2188 49.8516 21.625 51.0234 21.625C53.1172 21.625 54.4609 23.2656 54.4609 25.8906V25.8984C54.4609 28.5156 53.1094 30.1641 51.0469 30.1641C49.8828 30.1641 48.9375 29.5703 48.4531 28.6172H48.4141V32.7344H46.7266ZM50.5859 28.7109C51.9141 28.7109 52.7422 27.6328 52.7422 25.8984V25.8906C52.7422 24.1406 51.9062 23.0703 50.5859 23.0703C49.3047 23.0703 48.4062 24.1797 48.4062 25.8906V25.8984C48.4062 27.6016 49.3125 28.7109 50.5859 28.7109ZM55.8672 30V18.7266H57.5547V25.2891H57.5938L60.8906 21.7812H62.875L59.5 25.3281L63.0078 30H61.0469L58.2578 26.3438L57.5547 27.0391V30H55.8672ZM67.5938 30V23.125H66.4609V21.7812H67.5938V20.9062C67.5938 19.3125 68.3438 18.5625 70.0156 18.5625C70.3594 18.5625 70.7344 18.5938 70.9609 18.6328V19.8828C70.7969 19.8594 70.5859 19.8438 70.375 19.8438C69.6172 19.8438 69.2578 20.2109 69.2578 20.9375V21.7812H70.9297V23.125H69.2891V30H67.5938ZM73.1719 20.5156C72.625 20.5156 72.1875 20.0781 72.1875 19.5469C72.1875 19.0078 72.625 18.5703 73.1719 18.5703C73.7266 18.5703 74.1562 19.0078 74.1562 19.5469C74.1562 20.0781 73.7266 20.5156 73.1719 20.5156ZM72.3281 30V21.7812H74.0156V30H72.3281ZM75.8203 30V18.7266H77.5078V30H75.8203ZM82.75 30.1641C80.3359 30.1641 78.875 28.5156 78.875 25.9219V25.9141C78.875 23.3438 80.3594 21.625 82.6641 21.625C84.9688 21.625 86.3828 23.2812 86.3828 25.75V26.3203H80.5625C80.5938 27.875 81.4453 28.7812 82.7891 28.7812C83.7891 28.7812 84.4531 28.2656 84.6641 27.6484L84.6875 27.5859H86.2891L86.2734 27.6719C86.0078 28.9766 84.7422 30.1641 82.75 30.1641ZM82.6719 23.0078C81.5781 23.0078 80.7344 23.75 80.5859 25.125H84.7109C84.5703 23.7031 83.7734 23.0078 82.6719 23.0078Z" fill="#1B222F"/>
</svg>
