<svg width="120" height="40" viewBox="0 0 120 40" fill="none" xmlns="http://www.w3.org/2000/svg">
<rect x="0.5" y="0.5" width="119" height="39" rx="3.5" stroke="#49505E"/>
<path d="M20.7973 20.2264C20.8191 18.53 21.7085 16.9629 23.1538 16.0744C22.2379 14.7663 20.7588 13.9666 19.1627 13.9167C17.4834 13.7404 15.8555 14.9215 14.9998 14.9215C14.1276 14.9215 12.81 13.9342 11.3913 13.9634C9.52464 14.0237 7.82657 15.0593 6.91839 16.6912C4.98439 20.0397 6.42698 24.9607 8.27959 27.6673C9.20649 28.9927 10.2898 30.4731 11.7072 30.4206C13.0943 30.3631 13.6123 29.5361 15.2866 29.5361C16.9454 29.5361 17.4314 30.4206 18.8776 30.3872C20.366 30.3631 21.3037 29.056 22.1981 27.7181C22.8641 26.7737 23.3765 25.73 23.7165 24.6256C21.9488 23.8779 20.7993 22.1458 20.7973 20.2264ZM18.0657 12.1366C18.8772 11.1624 19.277 9.91024 19.1802 8.646C17.9403 8.77623 16.7951 9.36878 15.9726 10.3056C15.1605 11.2299 14.749 12.4392 14.8289 13.667C16.0853 13.6799 17.2783 13.1159 18.0657 12.1366Z" fill="#1B222F"/>
<path d="M28.3896 12V7.77246H29.8809C31.1348 7.77246 31.8818 8.54297 31.8818 9.87305V9.87891C31.8818 11.2148 31.1406 12 29.8809 12H28.3896ZM29.0459 11.4316H29.8193C30.7158 11.4316 31.2109 10.8838 31.2109 9.88477V9.87891C31.2109 8.88574 30.71 8.33789 29.8193 8.33789H29.0459V11.4316ZM34.3369 12.0703C33.1182 12.0703 32.3564 11.2324 32.3564 9.8877V9.88184C32.3564 8.54004 33.1211 7.70215 34.3369 7.70215C35.5557 7.70215 36.3174 8.54297 36.3174 9.88184V9.8877C36.3174 11.2295 35.5586 12.0703 34.3369 12.0703ZM34.3369 11.4902C35.1484 11.4902 35.6465 10.8633 35.6465 9.8877V9.88184C35.6465 8.90039 35.1396 8.28223 34.3369 8.28223C33.5371 8.28223 33.0244 8.89746 33.0244 9.88184V9.8877C33.0244 10.8721 33.5342 11.4902 34.3369 11.4902ZM37.6768 12L36.5371 7.77246H37.2197L38.0078 11.0859H38.0195L38.9131 7.77246H39.5342L40.4277 11.0859H40.4424L41.2305 7.77246H41.9131L40.7705 12H40.1406L39.2324 8.8125H39.2178L38.3066 12H37.6768ZM42.4346 12V7.77246H43.041L45.2148 10.8984H45.2324V7.77246H45.8828V12H45.2793L43.1025 8.86816H43.085V12H42.4346ZM46.665 12V7.77246H47.3213V11.4346H49.29V12H46.665ZM51.5049 12.0703C50.2861 12.0703 49.5244 11.2324 49.5244 9.8877V9.88184C49.5244 8.54004 50.2891 7.70215 51.5049 7.70215C52.7236 7.70215 53.4854 8.54297 53.4854 9.88184V9.8877C53.4854 11.2295 52.7266 12.0703 51.5049 12.0703ZM51.5049 11.4902C52.3164 11.4902 52.8145 10.8633 52.8145 9.8877V9.88184C52.8145 8.90039 52.3076 8.28223 51.5049 8.28223C50.7051 8.28223 50.1924 8.89746 50.1924 9.88184V9.8877C50.1924 10.8721 50.7021 11.4902 51.5049 11.4902ZM53.6582 12L55.1963 7.77246H55.9053L57.4404 12H56.752L56.3652 10.8574H54.7363L54.3467 12H53.6582ZM55.5449 8.47266L54.9121 10.3301H56.1865L55.5566 8.47266H55.5449ZM57.9092 12V7.77246H59.4004C60.6543 7.77246 61.4014 8.54297 61.4014 9.87305V9.87891C61.4014 11.2148 60.6602 12 59.4004 12H57.9092ZM58.5654 11.4316H59.3389C60.2354 11.4316 60.7305 10.8838 60.7305 9.88477V9.87891C60.7305 8.88574 60.2295 8.33789 59.3389 8.33789H58.5654V11.4316ZM65.0752 12.0703C63.8564 12.0703 63.0947 11.2324 63.0947 9.8877V9.88184C63.0947 8.54004 63.8594 7.70215 65.0752 7.70215C66.2939 7.70215 67.0557 8.54297 67.0557 9.88184V9.8877C67.0557 11.2295 66.2969 12.0703 65.0752 12.0703ZM65.0752 11.4902C65.8867 11.4902 66.3848 10.8633 66.3848 9.8877V9.88184C66.3848 8.90039 65.8779 8.28223 65.0752 8.28223C64.2754 8.28223 63.7627 8.89746 63.7627 9.88184V9.8877C63.7627 10.8721 64.2725 11.4902 65.0752 11.4902ZM67.6826 12V7.77246H68.2891L70.4629 10.8984H70.4805V7.77246H71.1309V12H70.5273L68.3506 8.86816H68.333V12H67.6826ZM74.1807 12V8.33789H72.8857V7.77246H76.1289V8.33789H74.8369V12H74.1807ZM76.665 12V7.77246H77.3213V9.55957H79.4922V7.77246H80.1484V12H79.4922V10.1279H77.3213V12H76.665ZM80.9248 12V7.77246H83.6084V8.33789H81.5811V9.57129H83.5V10.1221H81.5811V11.4346H83.6084V12H80.9248Z" fill="#1B222F"/>
<path d="M28.2031 30L32.3047 18.7266H34.1953L38.2891 30H36.4531L35.4219 26.9531H31.0781L30.0391 30H28.2031ZM33.2344 20.5938L31.5469 25.5469H34.9453L33.2656 20.5938H33.2344ZM39.3359 32.7344V21.7812H41.0234V23.1953H41.0625C41.5547 22.2188 42.4609 21.625 43.6328 21.625C45.7266 21.625 47.0703 23.2656 47.0703 25.8906V25.8984C47.0703 28.5156 45.7188 30.1641 43.6562 30.1641C42.4922 30.1641 41.5469 29.5703 41.0625 28.6172H41.0234V32.7344H39.3359ZM43.1953 28.7109C44.5234 28.7109 45.3516 27.6328 45.3516 25.8984V25.8906C45.3516 24.1406 44.5156 23.0703 43.1953 23.0703C41.9141 23.0703 41.0156 24.1797 41.0156 25.8906V25.8984C41.0156 27.6016 41.9219 28.7109 43.1953 28.7109ZM48.3828 32.7344V21.7812H50.0703V23.1953H50.1094C50.6016 22.2188 51.5078 21.625 52.6797 21.625C54.7734 21.625 56.1172 23.2656 56.1172 25.8906V25.8984C56.1172 28.5156 54.7656 30.1641 52.7031 30.1641C51.5391 30.1641 50.5938 29.5703 50.1094 28.6172H50.0703V32.7344H48.3828ZM52.2422 28.7109C53.5703 28.7109 54.3984 27.6328 54.3984 25.8984V25.8906C54.3984 24.1406 53.5625 23.0703 52.2422 23.0703C50.9609 23.0703 50.0625 24.1797 50.0625 25.8906V25.8984C50.0625 27.6016 50.9688 28.7109 52.2422 28.7109ZM64.7266 30.1875C62.1953 30.1875 60.5234 28.9844 60.3828 27L60.375 26.8828H62.0781L62.0938 26.9844C62.25 28.0234 63.2891 28.6719 64.7969 28.6719C66.3047 28.6719 67.2578 27.9922 67.2578 26.9375V26.9297C67.2578 26.0234 66.6406 25.5312 65.1484 25.2031L63.9219 24.9453C61.7109 24.4766 60.6406 23.4609 60.6406 21.7891V21.7812C60.6484 19.8594 62.3438 18.5391 64.7266 18.5391C67.0781 18.5391 68.6875 19.8203 68.8047 21.7109L68.8125 21.8438H67.1094L67.1016 21.7344C66.9453 20.6875 66.0391 20.0547 64.7031 20.0547C63.3047 20.0625 62.4141 20.7266 62.4141 21.7109V21.7188C62.4141 22.5625 63.0547 23.0781 64.4609 23.3828L65.6953 23.6406C68.0234 24.1328 69.0234 25.0781 69.0234 26.8203V26.8281C69.0234 28.8828 67.3984 30.1875 64.7266 30.1875ZM73.2812 30.1641C71.6562 30.1641 70.875 29.4766 70.875 27.8359V23.125H69.6953V21.7812H70.875V19.6406H72.6016V21.7812H74.1406V23.125H72.6016V27.7344C72.6016 28.5703 72.9766 28.8203 73.6875 28.8203C73.8672 28.8203 74.0156 28.8047 74.1406 28.7891V30.0938C73.9453 30.125 73.625 30.1641 73.2812 30.1641ZM78.8672 30.1641C76.5078 30.1641 74.9688 28.5312 74.9688 25.8906V25.875C74.9688 23.25 76.5234 21.625 78.8594 21.625C81.2031 21.625 82.7656 23.2422 82.7656 25.875V25.8906C82.7656 28.5391 81.2188 30.1641 78.8672 30.1641ZM78.875 28.75C80.1953 28.75 81.0391 27.7031 81.0391 25.8906V25.875C81.0391 24.0781 80.1797 23.0391 78.8594 23.0391C77.5625 23.0391 76.6953 24.0781 76.6953 25.875V25.8906C76.6953 27.7109 77.5547 28.75 78.875 28.75ZM84.0703 30V21.7812H85.7578V23.1875H85.7969C86.0625 22.2266 86.75 21.625 87.6875 21.625C87.9297 21.625 88.1406 21.6641 88.2734 21.6875V23.2578C88.1406 23.2031 87.8438 23.1641 87.5156 23.1641C86.4297 23.1641 85.7578 23.875 85.7578 25.1016V30H84.0703ZM92.4688 30.1641C90.0547 30.1641 88.5938 28.5156 88.5938 25.9219V25.9141C88.5938 23.3438 90.0781 21.625 92.3828 21.625C94.6875 21.625 96.1016 23.2812 96.1016 25.75V26.3203H90.2812C90.3125 27.875 91.1641 28.7812 92.5078 28.7812C93.5078 28.7812 94.1719 28.2656 94.3828 27.6484L94.4062 27.5859H96.0078L95.9922 27.6719C95.7266 28.9766 94.4609 30.1641 92.4688 30.1641ZM92.3906 23.0078C91.2969 23.0078 90.4531 23.75 90.3047 25.125H94.4297C94.2891 23.7031 93.4922 23.0078 92.3906 23.0078Z" fill="#1B222F"/>
</svg>
