<svg width="120" height="40" viewBox="0 0 120 40" fill="none" xmlns="http://www.w3.org/2000/svg">
<rect x="0.5" y="0.5" width="119" height="39" rx="3.5" stroke="#49505E"/>
<path d="M8.41771 8.36055C8.12806 8.70811 7.98186 9.15306 8.00892 9.60468V29.2619C7.98186 29.7136 8.12806 30.1585 8.41771 30.5061L8.47991 30.5683L19.4904 19.5666V19.3089L8.47991 8.29834L8.41771 8.36055Z" fill="url(#paint0_linear_209_767)"/>
<path d="M23.1339 23.2368L19.4904 19.5666V19.3089L23.1339 15.6298L23.2139 15.6743L27.5772 18.1536C28.8213 18.8557 28.8213 20.0109 27.5772 20.7219L23.2316 23.1923L23.1339 23.2368Z" fill="url(#paint1_linear_209_767)"/>
<path d="M23.2405 23.1834L19.4903 19.4333L8.4176 30.506C8.94077 30.9659 9.71721 30.9883 10.266 30.5594L23.2494 23.1834" fill="url(#paint2_linear_209_767)"/>
<path d="M23.2405 15.6832L10.2571 8.30728C9.7083 7.87829 8.93186 7.9007 8.40869 8.3606L19.4903 19.4334L23.2405 15.6832Z" fill="url(#paint3_linear_209_767)"/>
<path opacity="0.2" d="M23.1338 23.1036L10.2571 30.4351C9.73019 30.8291 9.00676 30.8291 8.47981 30.4351L8.4176 30.4973L8.47981 30.5595C9.00576 30.9564 9.73118 30.9564 10.2571 30.5595L23.2405 23.1836L23.1338 23.1036Z" fill="black"/>
<path opacity="0.12" d="M8.41771 30.3816C8.12806 30.0341 7.98186 29.5891 8.00892 29.1375V29.2708C7.98186 29.7224 8.12806 30.1674 8.41771 30.5149L8.47991 30.4527L8.41771 30.3816ZM27.5773 20.5886L23.134 23.1035L23.2139 23.1834L27.5773 20.713C28.0812 20.4762 28.4202 19.9882 28.4659 19.4333C28.3646 19.9352 28.0364 20.3619 27.5773 20.5886Z" fill="black"/>
<path opacity="0.25" d="M10.2572 8.43161L27.5772 18.278C28.0364 18.5047 28.3647 18.9313 28.4659 19.4332C28.4201 18.8783 28.0812 18.3903 27.5772 18.1536L10.2572 8.3072C9.01307 7.60515 8 8.19167 8 9.61353V9.74683C8.02666 8.31608 9.02196 7.72957 10.2572 8.43161Z" fill="white"/>
<path d="M37.3196 10.4599H39.1872V13.0079C38.8817 13.1074 38.5878 13.178 38.3055 13.2196C38.0254 13.2613 37.7222 13.2821 37.396 13.2821C36.6277 13.2821 36.0352 13.0553 35.6187 12.6017C35.2021 12.1458 34.9938 11.5036 34.9938 10.6751C34.9938 9.85821 35.2286 9.21948 35.6985 8.75895C36.1682 8.29611 36.8151 8.06468 37.639 8.06468C38.1689 8.06468 38.6711 8.1665 39.1455 8.37016L38.8539 9.06095C38.442 8.87119 38.0301 8.7763 37.6182 8.7763C37.0766 8.7763 36.6485 8.9464 36.3337 9.28659C36.019 9.62678 35.8616 10.0919 35.8616 10.6821C35.8616 11.3023 36.0028 11.7744 36.2852 12.0984C36.5698 12.4201 36.9782 12.5809 37.5106 12.5809C37.7789 12.5809 38.066 12.5473 38.3714 12.4802V11.1715H37.3196V10.4599ZM43.2798 13.2127H40.4091V8.13758H43.2798V8.83879H41.2388V10.2204H43.1514V10.9147H41.2388V12.508H43.2798V13.2127ZM46.1333 13.2127H45.3037V8.8492H43.811V8.13758H47.626V8.8492H46.1333V13.2127ZM50.2538 13.2127V8.13758H51.0835V13.2127H50.2538ZM54.1799 13.2127H53.3503V8.8492H51.8576V8.13758H55.6726V8.8492H54.1799V13.2127ZM62.8062 10.6682C62.8062 11.4944 62.599 12.1366 62.1848 12.5948C61.7729 13.053 61.1886 13.2821 60.4318 13.2821C59.6657 13.2821 59.0768 13.0553 58.6648 12.6017C58.2553 12.1458 58.0504 11.499 58.0504 10.6612C58.0504 9.8235 58.2564 9.18014 58.6684 8.73118C59.0826 8.28222 59.6728 8.05774 60.4387 8.05774C61.1932 8.05774 61.7763 8.28569 62.1883 8.74159C62.6002 9.19749 62.8062 9.8397 62.8062 10.6682ZM58.9321 10.6682C58.9321 11.293 59.0583 11.7674 59.3105 12.0914C59.5628 12.4131 59.9365 12.574 60.4318 12.574C60.9247 12.574 61.2962 12.4143 61.5461 12.0949C61.7984 11.7755 61.9245 11.3 61.9245 10.6682C61.9245 10.0457 61.7995 9.57356 61.5495 9.25188C61.3019 8.9302 60.9316 8.76936 60.4387 8.76936C59.9411 8.76936 59.5651 8.9302 59.3105 9.25188C59.0583 9.57356 58.9321 10.0457 58.9321 10.6682ZM68.1243 13.2127H67.1071L64.6113 9.16857H64.5835L64.6008 9.3942C64.6333 9.82465 64.6495 10.2181 64.6495 10.5745V13.2127H63.8962V8.13758H64.9029L67.3919 12.1609H67.4127C67.408 12.1076 67.3988 11.9144 67.3848 11.5811C67.371 11.2456 67.3641 10.9841 67.3641 10.7966V8.13758H68.1243V13.2127Z" fill="black"/>
<path d="M40.1874 29.393C37.0818 29.393 35.1492 27.2833 35.1492 23.8458V23.8384C35.1492 20.46 37.0818 18.3798 40.1506 18.3798C42.6733 18.3798 44.3109 19.8403 44.7166 21.8025L44.7461 21.9205H42.8134L42.7913 21.8394C42.3856 20.696 41.4636 20.0321 40.1579 20.0321C38.24 20.0321 37.0892 21.4337 37.0892 23.8237V23.8311C37.0892 26.2728 38.2917 27.7406 40.2096 27.7406C41.8176 27.7406 42.9242 26.7522 42.9611 25.2622L42.9684 25.0999H40.3276V23.6172H44.8273V24.7679C44.8273 27.6595 43.1012 29.393 40.1874 29.393ZM49.659 29.3635C47.3575 29.3635 45.8748 27.8292 45.8748 25.299V25.2843C45.8748 22.7762 47.3796 21.2272 49.6516 21.2272C51.931 21.2272 53.4432 22.7615 53.4432 25.2843V25.299C53.4432 27.8366 51.9531 29.3635 49.659 29.3635ZM49.6664 27.8809C50.8245 27.8809 51.5695 26.9367 51.5695 25.299V25.2843C51.5695 23.654 50.8171 22.7172 49.6516 22.7172C48.5082 22.7172 47.7485 23.6614 47.7485 25.2843V25.299C47.7485 26.944 48.4934 27.8809 49.6664 27.8809ZM58.0831 29.3635C55.7815 29.3635 54.2989 27.8292 54.2989 25.299V25.2843C54.2989 22.7762 55.8037 21.2272 58.0757 21.2272C60.355 21.2272 61.8673 22.7615 61.8673 25.2843V25.299C61.8673 27.8366 60.3772 29.3635 58.0831 29.3635ZM58.0905 27.8809C59.2486 27.8809 59.9936 26.9367 59.9936 25.299V25.2843C59.9936 23.654 59.2412 22.7172 58.0757 22.7172C56.9323 22.7172 56.1725 23.6614 56.1725 25.2843V25.299C56.1725 26.944 56.9175 27.8809 58.0905 27.8809ZM66.5736 31.9454C64.5007 31.9454 63.195 31.0012 62.9738 29.7767L62.959 29.7103H64.7663L64.7884 29.7693C64.9876 30.2192 65.6146 30.5585 66.5736 30.5585C67.7685 30.5585 68.4251 29.9242 68.4251 28.9283V27.7997H68.3882C67.9529 28.6332 67.0677 29.1644 65.9465 29.1644C63.9843 29.1644 62.723 27.6595 62.723 25.2253V25.2179C62.723 22.7467 63.9991 21.2272 65.976 21.2272C67.0825 21.2272 67.9382 21.8173 68.3807 22.7172H68.4251V21.3895H70.2618V28.9874C70.2618 30.7577 68.8381 31.9454 66.5736 31.9454ZM66.5219 27.748C67.6653 27.748 68.4325 26.7817 68.4325 25.2622V25.2548C68.4325 23.7426 67.6579 22.7762 66.5219 22.7762C65.3416 22.7762 64.5965 23.7278 64.5965 25.2474V25.2548C64.5965 26.7964 65.3416 27.748 66.5219 27.748ZM71.8183 29.2086V18.5642H73.655V29.2086H71.8183ZM78.6564 29.3635C76.3106 29.3635 74.8943 27.8071 74.8943 25.3212V25.3138C74.8943 22.85 76.3328 21.2272 78.5678 21.2272C80.803 21.2272 82.1898 22.7983 82.1898 25.1589V25.749H76.7163C76.7458 27.1211 77.4982 27.9325 78.6932 27.9325C79.6079 27.9325 80.2055 27.4456 80.3825 26.9219L80.3972 26.8703H82.116L82.0939 26.9514C81.8505 28.1538 80.6997 29.3635 78.6564 29.3635ZM78.59 22.6656C77.6163 22.6656 76.886 23.3221 76.7384 24.5245H80.4046C80.2719 23.2852 79.5637 22.6656 78.59 22.6656ZM86.5863 29.2086V18.5642H90.6876C92.8416 18.5642 94.3095 19.9879 94.3095 22.1197V22.1345C94.3095 24.259 92.8416 25.69 90.6876 25.69H88.4894V29.2086H86.5863ZM90.2156 20.1206H88.4894V24.1557H90.2156C91.5802 24.1557 92.3769 23.418 92.3769 22.1419V22.127C92.3769 20.8509 91.5802 20.1206 90.2156 20.1206ZM95.5709 29.2086V18.5642H97.4077V29.2086H95.5709ZM101.28 29.3414C99.7164 29.3414 98.6616 28.3751 98.6616 26.9809V26.9662C98.6616 25.5793 99.7387 24.7458 101.634 24.6277L103.678 24.5024V23.9638C103.678 23.1746 103.162 22.6951 102.232 22.6951C101.361 22.6951 100.831 23.1008 100.713 23.6762L100.698 23.7426H98.994L99.0011 23.654C99.1121 22.2673 100.315 21.2272 102.298 21.2272C104.253 21.2272 105.515 22.2599 105.515 23.8311V29.2086H103.678V28.0063H103.634C103.184 28.8251 102.313 29.3414 101.28 29.3414ZM100.491 26.9072C100.491 27.5489 101.022 27.9399 101.826 27.9399C102.881 27.9399 103.678 27.2391 103.678 26.3096V25.7195L101.893 25.8301C100.985 25.8891 100.491 26.2801 100.491 26.8998V26.9072ZM108.016 31.8052C107.661 31.8052 107.292 31.761 107.071 31.7241V30.3225C107.211 30.352 107.425 30.3889 107.683 30.3889C108.384 30.3889 108.775 30.1897 109.011 29.5332L109.122 29.216L106.311 21.3895H108.318L110.147 27.6448H110.199L112.035 21.3895H113.968L111.158 29.4742C110.56 31.1929 109.645 31.8052 108.016 31.8052Z" fill="black"/>
<defs>
<linearGradient id="paint0_linear_209_767" x1="15.0153" y1="9.40028" x2="5.57651" y2="18.8391" gradientUnits="userSpaceOnUse">
<stop stop-color="#00A0FF"/>
<stop offset="0.01" stop-color="#00A1FF"/>
<stop offset="0.26" stop-color="#00BEFF"/>
<stop offset="0.51" stop-color="#00D2FF"/>
<stop offset="0.76" stop-color="#00DFFF"/>
<stop offset="1" stop-color="#00E3FF"/>
</linearGradient>
<linearGradient id="paint1_linear_209_767" x1="29.2034" y1="19.4333" x2="7.70669" y2="19.4333" gradientUnits="userSpaceOnUse">
<stop stop-color="#FFE000"/>
<stop offset="0.41" stop-color="#FFBD00"/>
<stop offset="0.78" stop-color="#FFA500"/>
<stop offset="1" stop-color="#FF9C00"/>
</linearGradient>
<linearGradient id="paint2_linear_209_767" x1="21.2054" y1="22.9675" x2="5.08117" y2="39.0847" gradientUnits="userSpaceOnUse">
<stop stop-color="#FF3A44"/>
<stop offset="1" stop-color="#C31162"/>
</linearGradient>
<linearGradient id="paint3_linear_209_767" x1="5.62718" y1="6.64726" x2="12.8242" y2="13.8443" gradientUnits="userSpaceOnUse">
<stop stop-color="#32A071"/>
<stop offset="0.07" stop-color="#2DA771"/>
<stop offset="0.48" stop-color="#15CF74"/>
<stop offset="0.8" stop-color="#06E775"/>
<stop offset="1" stop-color="#00F076"/>
</linearGradient>
</defs>
</svg>
