<svg width="120" height="40" viewBox="0 0 120 40" fill="none" xmlns="http://www.w3.org/2000/svg">
<rect x="0.5" y="0.5" width="119" height="39" rx="3.5" stroke="#49505E"/>
<path d="M28.66 14.808H39.34V15.72H28.66V14.808ZM33.28 15.528H34.228V24.948H33.28V15.528ZM33.808 18.372L34.396 17.676C35.836 18.372 37.732 19.464 38.692 20.184L38.056 21C37.132 20.256 35.26 19.116 33.808 18.372ZM48.832 14.592L49.468 14.172C50.02 14.604 50.68 15.24 50.968 15.696L50.296 16.164C50.008 15.72 49.372 15.06 48.832 14.592ZM40.636 16.644H51.4V17.376H40.636V16.644ZM41.26 14.892H46.54V15.612H41.26V14.892ZM43.552 13.92H44.416V17.016H43.552V13.92ZM47.296 13.944H48.196C48.136 19.668 48.952 23.988 50.344 23.988C50.644 23.988 50.764 23.46 50.836 22.056C51.016 22.248 51.328 22.44 51.544 22.524C51.4 24.312 51.1 24.864 50.272 24.864C48.016 24.864 47.332 19.896 47.296 13.944ZM50.056 18L50.86 18.228C50.068 20.964 48.688 23.472 46.708 24.984C46.564 24.804 46.288 24.54 46.072 24.372C47.98 23.016 49.348 20.58 50.056 18ZM40.828 18.576H46.984V19.32H40.828V18.576ZM43.984 19.692H44.836V24.912H43.984V19.692ZM41.452 21.6C41.404 21.42 41.284 21 41.164 20.784C41.356 20.736 41.536 20.508 41.728 20.172C41.932 19.848 42.604 18.588 42.964 17.4L43.852 17.64C43.348 18.936 42.652 20.244 42.004 21.132V21.156C42.004 21.156 41.452 21.42 41.452 21.6ZM41.452 21.6V20.928L41.944 20.664H46.744L46.732 21.432H42.412C41.908 21.432 41.56 21.504 41.452 21.6ZM40.768 22.908C42.28 22.8 44.692 22.572 47.02 22.356L47.008 23.112C44.788 23.34 42.448 23.58 40.864 23.736L40.768 22.908ZM55.123 24V17.9062H56.1426V18.7969H56.166C56.4414 18.1934 57.0508 17.7891 57.8359 17.7891C58.668 17.7891 59.2832 18.2168 59.5469 18.9609H59.5703C59.9102 18.2285 60.625 17.7891 61.4805 17.7891C62.6875 17.7891 63.4668 18.5801 63.4668 19.793V24H62.4473V20.0273C62.4473 19.1895 61.9844 18.6914 61.1816 18.6914C60.373 18.6914 59.8047 19.2949 59.8047 20.127V24H58.7852V19.916C58.7852 19.1777 58.293 18.6914 57.5371 18.6914C56.7285 18.6914 56.1426 19.3301 56.1426 20.1797V24H55.123ZM66.5488 24.1172C65.3359 24.1172 64.5215 23.3848 64.5215 22.2773V22.2656C64.5215 21.2285 65.3301 20.5781 66.7305 20.4961L68.4766 20.3965V19.8867C68.4766 19.1426 67.9902 18.6914 67.1406 18.6914C66.3555 18.6914 65.8633 19.0664 65.7461 19.6113L65.7344 19.6641H64.75L64.7559 19.5996C64.8438 18.5977 65.7168 17.7891 67.1523 17.7891C68.5938 17.7891 69.4961 18.5684 69.4961 19.7871V24H68.4766V23.0098H68.4531C68.0957 23.6777 67.3633 24.1172 66.5488 24.1172ZM65.5645 22.2773C65.5645 22.8633 66.0449 23.2324 66.7773 23.2324C67.7383 23.2324 68.4766 22.5703 68.4766 21.6855V21.1875L66.8477 21.2871C66.0332 21.334 65.5645 21.6973 65.5645 22.2656V22.2773ZM73.3164 24.1172C71.5879 24.1172 70.4922 22.8867 70.4922 20.9473V20.9414C70.4922 19.0195 71.6113 17.7891 73.3047 17.7891C74.8223 17.7891 75.7188 18.7969 75.8477 19.8398L75.8535 19.8867H74.8574L74.8457 19.8398C74.6934 19.2305 74.2012 18.6914 73.3047 18.6914C72.2441 18.6914 71.5352 19.5703 71.5352 20.9531V20.959C71.5352 22.377 72.2617 23.2148 73.3164 23.2148C74.1484 23.2148 74.6816 22.7461 74.8516 22.0664L74.8633 22.0195H75.8652L75.8594 22.0605C75.6953 23.2207 74.6934 24.1172 73.3164 24.1172ZM80.5352 24.1406C78.1328 24.1406 76.6328 22.459 76.6328 19.7754V19.7637C76.6328 17.0859 78.1387 15.4043 80.5352 15.4043C82.9258 15.4043 84.4258 17.0859 84.4258 19.7637V19.7754C84.4258 22.459 82.9316 24.1406 80.5352 24.1406ZM80.5352 23.168C82.2754 23.168 83.3477 21.8379 83.3477 19.7754V19.7637C83.3477 17.6895 82.2578 16.377 80.5352 16.377C78.8066 16.377 77.7109 17.6836 77.7109 19.7637V19.7754C77.7109 21.8555 78.8008 23.168 80.5352 23.168ZM88.5039 24.1406C86.6758 24.1406 85.4395 23.2441 85.334 21.7969L85.3281 21.7148H86.3828L86.3945 21.7969C86.5176 22.6465 87.3379 23.168 88.5625 23.168C89.7812 23.168 90.5488 22.6172 90.5488 21.7441V21.7383C90.5488 20.9941 90.0625 20.5781 88.9023 20.3203L87.9648 20.1152C86.3125 19.752 85.5391 19.0078 85.5391 17.7715V17.7656C85.5449 16.377 86.7754 15.4043 88.5156 15.4043C90.168 15.4043 91.375 16.3594 91.4688 17.7422L91.4746 17.8301H90.4199L90.4082 17.748C90.2793 16.8867 89.5586 16.377 88.4863 16.377C87.3555 16.3828 86.6172 16.9219 86.6172 17.7363V17.7422C86.6172 18.4336 87.127 18.8672 88.2285 19.1074L89.166 19.3125C90.9004 19.6934 91.627 20.3965 91.627 21.6855V21.6914C91.627 23.1914 90.4375 24.1406 88.5039 24.1406ZM98.307 14.46H103.323V15.288H98.307V14.46ZM93.651 17.244H97.299V18.048H93.651V17.244ZM98.331 17.568H102.615V18.408H98.331V17.568ZM95.415 13.896H96.243V17.724H95.415V13.896ZM97.851 14.46H98.703V17.916C98.703 19.956 98.547 22.932 97.455 24.948C97.299 24.804 96.927 24.588 96.711 24.516C97.767 22.572 97.851 19.848 97.851 17.916V14.46ZM93.687 19.8H96.579V24.948H95.739V20.604H93.687V19.8ZM93.291 14.172H94.107V18.924C94.107 21.024 93.975 23.316 92.979 24.984C92.847 24.816 92.547 24.564 92.343 24.444C93.183 22.908 93.291 20.76 93.291 18.936V14.172ZM102.351 17.568H102.507L102.663 17.544L103.215 17.712C102.651 21.432 100.995 23.772 98.835 24.96C98.715 24.744 98.463 24.408 98.271 24.228C100.239 23.256 101.859 20.964 102.351 17.748V17.568ZM99.579 18.096C100.179 20.964 101.463 23.268 103.707 24.24C103.515 24.408 103.239 24.744 103.083 24.984C100.767 23.832 99.507 21.408 98.847 18.276L99.579 18.096Z" fill="#1B222F"/>
<path d="M20.7973 20.5804C20.8191 18.884 21.7085 17.3169 23.1538 16.4284C22.2379 15.1203 20.7588 14.3206 19.1627 14.2707C17.4834 14.0944 15.8555 15.2755 14.9998 15.2755C14.1276 15.2755 12.81 14.2882 11.3913 14.3174C9.52464 14.3777 7.82657 15.4133 6.91839 17.0452C4.98439 20.3937 6.42698 25.3147 8.27959 28.0213C9.20649 29.3467 10.2898 30.8271 11.7072 30.7746C13.0943 30.7171 13.6123 29.8901 15.2866 29.8901C16.9454 29.8901 17.4314 30.7746 18.8776 30.7412C20.366 30.7171 21.3037 29.41 22.1981 28.0721C22.8641 27.1277 23.3765 26.084 23.7165 24.9796C21.9488 24.2319 20.7993 22.4998 20.7973 20.5804ZM18.0657 12.4906C18.8772 11.5164 19.277 10.2642 19.1802 9C17.9403 9.13023 16.7951 9.72278 15.9726 10.6596C15.1605 11.5839 14.749 12.7932 14.8289 14.021C16.0853 14.0339 17.2783 13.4699 18.0657 12.4906Z" fill="#1B222F"/>
</svg>
