<svg width="120" height="40" viewBox="0 0 120 40" fill="none" xmlns="http://www.w3.org/2000/svg">
<rect x="0.5" y="0.5" width="119" height="39" rx="3.5" stroke="#49505E"/>
<path d="M32.5664 24L30.2637 15.5449H31.3652L33.0703 22.4883H33.0938L35.0098 15.5449H36.0762L37.9922 22.4883H38.0156L39.7207 15.5449H40.8223L38.5195 24H37.5234L35.5547 17.2266H35.5312L33.5625 24H32.5664ZM43.6113 24.1172C41.8594 24.1172 40.8047 22.8926 40.8047 20.9766V20.9707C40.8047 19.084 41.8828 17.7891 43.5469 17.7891C45.2109 17.7891 46.2246 19.0254 46.2246 20.8535V21.2285H41.8359C41.8594 22.4824 42.5508 23.2148 43.6348 23.2148C44.4082 23.2148 44.9531 22.8281 45.1289 22.3066L45.1465 22.2539H46.1484L46.1367 22.3125C45.9375 23.3203 44.9414 24.1172 43.6113 24.1172ZM43.541 18.6914C42.6562 18.6914 41.9648 19.2949 41.8535 20.4316H45.1875C45.0879 19.248 44.4316 18.6914 43.541 18.6914ZM50.2852 24.1172C49.4121 24.1172 48.7324 23.6777 48.3516 22.9688H48.3281V24H47.3086V15.5449H48.3281V18.9258H48.3516C48.7324 18.2227 49.4414 17.7891 50.3027 17.7891C51.832 17.7891 52.875 19.0254 52.875 20.9473V20.9531C52.875 22.875 51.8438 24.1172 50.2852 24.1172ZM50.0859 23.2148C51.1641 23.2148 51.832 22.3535 51.832 20.9531V20.9473C51.832 19.5586 51.1641 18.6914 50.0859 18.6914C49.0605 18.6914 48.3223 19.5879 48.3223 20.9473V20.9531C48.3223 22.3184 49.0547 23.2148 50.0859 23.2148ZM54.7324 24V16.4941H52.0664V15.5449H58.4531V16.4941H55.7871V24H54.7324ZM60.334 24.1172C58.582 24.1172 57.5273 22.8926 57.5273 20.9766V20.9707C57.5273 19.084 58.6055 17.7891 60.2695 17.7891C61.9336 17.7891 62.9473 19.0254 62.9473 20.8535V21.2285H58.5586C58.582 22.4824 59.2734 23.2148 60.3574 23.2148C61.1309 23.2148 61.6758 22.8281 61.8516 22.3066L61.8691 22.2539H62.8711L62.8594 22.3125C62.6602 23.3203 61.6641 24.1172 60.334 24.1172ZM60.2637 18.6914C59.3789 18.6914 58.6875 19.2949 58.5762 20.4316H61.9102C61.8105 19.248 61.1543 18.6914 60.2637 18.6914ZM63.9785 24V17.9062H64.998V18.9375H65.0215C65.2266 18.2344 65.7539 17.7891 66.4395 17.7891C66.6152 17.7891 66.7676 17.8184 66.8496 17.8301V18.8203C66.7676 18.791 66.5508 18.7617 66.3047 18.7617C65.5137 18.7617 64.998 19.3125 64.998 20.2383V24H63.9785ZM67.6816 24V17.9062H68.7012V18.7969H68.7246C69 18.1934 69.6094 17.7891 70.3945 17.7891C71.2266 17.7891 71.8418 18.2168 72.1055 18.9609H72.1289C72.4688 18.2285 73.1836 17.7891 74.0391 17.7891C75.2461 17.7891 76.0254 18.5801 76.0254 19.793V24H75.0059V20.0273C75.0059 19.1895 74.543 18.6914 73.7402 18.6914C72.9316 18.6914 72.3633 19.2949 72.3633 20.127V24H71.3438V19.916C71.3438 19.1777 70.8516 18.6914 70.0957 18.6914C69.2871 18.6914 68.7012 19.3301 68.7012 20.1797V24H67.6816ZM77.9004 16.875C77.5488 16.875 77.2617 16.5879 77.2617 16.2363C77.2617 15.8789 77.5488 15.5977 77.9004 15.5977C78.2578 15.5977 78.5391 15.8789 78.5391 16.2363C78.5391 16.5879 78.2578 16.875 77.9004 16.875ZM77.3906 24V17.9062H78.4102V24H77.3906ZM79.7988 24V17.9062H80.8184V18.7734H80.8418C81.1699 18.2051 81.791 17.7891 82.7168 17.7891C84.0527 17.7891 84.8262 18.6562 84.8262 20.0449V24H83.8066V20.2266C83.8066 19.2363 83.3438 18.6914 82.4062 18.6914C81.4453 18.6914 80.8184 19.377 80.8184 20.4141V24H79.7988ZM87.9082 24.1172C86.6953 24.1172 85.8809 23.3848 85.8809 22.2773V22.2656C85.8809 21.2285 86.6895 20.5781 88.0898 20.4961L89.8359 20.3965V19.8867C89.8359 19.1426 89.3496 18.6914 88.5 18.6914C87.7148 18.6914 87.2227 19.0664 87.1055 19.6113L87.0938 19.6641H86.1094L86.1152 19.5996C86.2031 18.5977 87.0762 17.7891 88.5117 17.7891C89.9531 17.7891 90.8555 18.5684 90.8555 19.7871V24H89.8359V23.0098H89.8125C89.4551 23.6777 88.7227 24.1172 87.9082 24.1172ZM86.9238 22.2773C86.9238 22.8633 87.4043 23.2324 88.1367 23.2324C89.0977 23.2324 89.8359 22.5703 89.8359 21.6855V21.1875L88.207 21.2871C87.3926 21.334 86.9238 21.6973 86.9238 22.2656V22.2773ZM92.2031 24V15.5449H93.2227V24H92.2031Z" fill="#1B222F"/>
<path d="M24.8889 16.6435V13.4188C24.8889 12.7597 24.3898 12.2222 23.7778 12.2222H8.2222C7.61014 12.2222 7.11108 12.7597 7.11108 13.4188V16.6435H24.8889ZM7.11108 18.1443V26.5812C7.11108 27.2403 7.61014 27.7778 8.2222 27.7778H23.7683C24.3804 27.7778 24.8794 27.2403 24.8794 26.5812V18.1443H7.11108Z" fill="#1B222F"/>
<path d="M8.85619 13.6406C9.01109 13.4792 9.22795 13.3824 9.45513 13.3824C9.69265 13.3824 9.89918 13.4792 10.0541 13.6406C10.209 13.802 10.3019 14.028 10.3019 14.2647C10.3019 14.5015 10.209 14.7274 10.0541 14.8888C9.89918 15.0502 9.68232 15.1471 9.45513 15.1471C8.98011 15.1471 8.59802 14.749 8.59802 14.254C8.60835 14.028 8.70129 13.802 8.85619 13.6406ZM11.8096 13.6406C11.9645 13.4792 12.1814 13.3824 12.4085 13.3824C12.6357 13.3824 12.8526 13.4792 13.0075 13.6406C13.1624 13.802 13.2553 14.028 13.2553 14.2647C13.2553 14.5015 13.1624 14.7274 13.0075 14.8888C12.8526 15.0502 12.6357 15.1471 12.4085 15.1471C11.9335 15.1471 11.5514 14.749 11.5514 14.254C11.5618 14.028 11.6547 13.802 11.8096 13.6406ZM15.0935 13.6406C15.2484 13.4792 15.4652 13.3824 15.6924 13.3824C15.9299 13.3824 16.1365 13.4792 16.2914 13.6406C16.4463 13.802 16.5392 14.028 16.5392 14.2647C16.5392 14.5015 16.4463 14.7274 16.2914 14.8888C16.1365 15.0502 15.9196 15.1471 15.6924 15.1471C15.2174 15.1471 14.8353 14.749 14.8353 14.254C14.8456 14.028 14.9386 13.802 15.0935 13.6406Z" fill="white"/>
</svg>
