<svg width="120" height="40" viewBox="0 0 120 40" fill="none" xmlns="http://www.w3.org/2000/svg">
<rect x="0.5" y="0.5" width="119" height="39" rx="3.5" stroke="#49505E"/>
<path d="M28.66 14.808H39.34V15.72H28.66V14.808ZM33.28 15.528H34.228V24.948H33.28V15.528ZM33.808 18.372L34.396 17.676C35.836 18.372 37.732 19.464 38.692 20.184L38.056 21C37.132 20.256 35.26 19.116 33.808 18.372ZM48.832 14.592L49.468 14.172C50.02 14.604 50.68 15.24 50.968 15.696L50.296 16.164C50.008 15.72 49.372 15.06 48.832 14.592ZM40.636 16.644H51.4V17.376H40.636V16.644ZM41.26 14.892H46.54V15.612H41.26V14.892ZM43.552 13.92H44.416V17.016H43.552V13.92ZM47.296 13.944H48.196C48.136 19.668 48.952 23.988 50.344 23.988C50.644 23.988 50.764 23.46 50.836 22.056C51.016 22.248 51.328 22.44 51.544 22.524C51.4 24.312 51.1 24.864 50.272 24.864C48.016 24.864 47.332 19.896 47.296 13.944ZM50.056 18L50.86 18.228C50.068 20.964 48.688 23.472 46.708 24.984C46.564 24.804 46.288 24.54 46.072 24.372C47.98 23.016 49.348 20.58 50.056 18ZM40.828 18.576H46.984V19.32H40.828V18.576ZM43.984 19.692H44.836V24.912H43.984V19.692ZM41.452 21.6C41.404 21.42 41.284 21 41.164 20.784C41.356 20.736 41.536 20.508 41.728 20.172C41.932 19.848 42.604 18.588 42.964 17.4L43.852 17.64C43.348 18.936 42.652 20.244 42.004 21.132V21.156C42.004 21.156 41.452 21.42 41.452 21.6ZM41.452 21.6V20.928L41.944 20.664H46.744L46.732 21.432H42.412C41.908 21.432 41.56 21.504 41.452 21.6ZM40.768 22.908C42.28 22.8 44.692 22.572 47.02 22.356L47.008 23.112C44.788 23.34 42.448 23.58 40.864 23.736L40.768 22.908ZM57.0273 24L54.7246 15.5449H55.8262L57.5312 22.4883H57.5547L59.4707 15.5449H60.5371L62.4531 22.4883H62.4766L64.1816 15.5449H65.2832L62.9805 24H61.9844L60.0156 17.2266H59.9922L58.0234 24H57.0273ZM66.7832 16.875C66.4316 16.875 66.1445 16.5879 66.1445 16.2363C66.1445 15.8789 66.4316 15.5977 66.7832 15.5977C67.1406 15.5977 67.4219 15.8789 67.4219 16.2363C67.4219 16.5879 67.1406 16.875 66.7832 16.875ZM66.2734 24V17.9062H67.293V24H66.2734ZM68.6816 24V17.9062H69.7012V18.7734H69.7246C70.0527 18.2051 70.6738 17.7891 71.5996 17.7891C72.9355 17.7891 73.709 18.6562 73.709 20.0449V24H72.6895V20.2266C72.6895 19.2363 72.2266 18.6914 71.2891 18.6914C70.3281 18.6914 69.7012 19.377 69.7012 20.4141V24H68.6816ZM77.3008 24.1172C75.7422 24.1172 74.7109 22.875 74.7109 20.9531V20.9473C74.7109 19.0254 75.7539 17.7891 77.2832 17.7891C78.1445 17.7891 78.8535 18.2227 79.2344 18.9258H79.2578V15.5449H80.2773V24H79.2578V22.9688H79.2344C78.8535 23.6777 78.1738 24.1172 77.3008 24.1172ZM77.5 23.2148C78.5312 23.2148 79.2637 22.3184 79.2637 20.9531V20.9473C79.2637 19.5879 78.5254 18.6914 77.5 18.6914C76.4219 18.6914 75.7539 19.5586 75.7539 20.9473V20.9531C75.7539 22.3535 76.4219 23.2148 77.5 23.2148ZM84.1797 24.1172C82.4863 24.1172 81.3555 22.8926 81.3555 20.9531V20.9414C81.3555 19.002 82.4922 17.7891 84.1738 17.7891C85.8555 17.7891 86.998 18.9961 86.998 20.9414V20.9531C86.998 22.8984 85.8613 24.1172 84.1797 24.1172ZM84.1855 23.2148C85.2578 23.2148 85.9551 22.3828 85.9551 20.9531V20.9414C85.9551 19.5117 85.252 18.6914 84.1738 18.6914C83.1133 18.6914 82.3984 19.5176 82.3984 20.9414V20.9531C82.3984 22.3887 83.1074 23.2148 84.1855 23.2148ZM89.2363 24L87.5312 17.9062H88.5449L89.7637 22.8633H89.7871L91.1641 17.9062H92.1484L93.5312 22.8633H93.5547L94.7734 17.9062H95.7812L94.082 24H93.0449L91.668 19.2832H91.6445L90.2734 24H89.2363ZM98.7812 24.1172C97.3457 24.1172 96.4785 23.3848 96.3555 22.2949L96.3496 22.2422H97.3691L97.3809 22.3008C97.5039 22.9102 97.9551 23.2676 98.7871 23.2676C99.6133 23.2676 100.105 22.9219 100.105 22.3711V22.3652C100.105 21.9258 99.877 21.6797 99.1855 21.5098L98.2188 21.2754C97.0703 21 96.5137 20.4668 96.5137 19.5879V19.582C96.5137 18.5332 97.4336 17.7891 98.752 17.7891C100.088 17.7891 100.938 18.5684 101.014 19.5879L101.02 19.6641H100.047L100.041 19.623C99.959 19.0312 99.5078 18.6387 98.752 18.6387C98.0137 18.6387 97.5566 18.9961 97.5566 19.5352V19.541C97.5566 19.957 97.832 20.2441 98.5059 20.4082L99.4727 20.6426C100.703 20.9414 101.148 21.4277 101.148 22.2949V22.3008C101.148 23.3672 100.141 24.1172 98.7812 24.1172ZM107.811 14.46H112.827V15.288H107.811V14.46ZM103.155 17.244H106.803V18.048H103.155V17.244ZM107.835 17.568H112.119V18.408H107.835V17.568ZM104.919 13.896H105.747V17.724H104.919V13.896ZM107.355 14.46H108.207V17.916C108.207 19.956 108.051 22.932 106.959 24.948C106.803 24.804 106.431 24.588 106.215 24.516C107.271 22.572 107.355 19.848 107.355 17.916V14.46ZM103.191 19.8H106.083V24.948H105.243V20.604H103.191V19.8ZM102.795 14.172H103.611V18.924C103.611 21.024 103.479 23.316 102.483 24.984C102.351 24.816 102.051 24.564 101.847 24.444C102.687 22.908 102.795 20.76 102.795 18.936V14.172ZM111.855 17.568H112.011L112.167 17.544L112.719 17.712C112.155 21.432 110.499 23.772 108.339 24.96C108.219 24.744 107.967 24.408 107.775 24.228C109.743 23.256 111.363 20.964 111.855 17.748V17.568ZM109.083 18.096C109.683 20.964 110.967 23.268 113.211 24.24C113.019 24.408 112.743 24.744 112.587 24.984C110.271 23.832 109.011 21.408 108.351 18.276L109.083 18.096Z" fill="#1B222F"/>
<path d="M13.1725 20.2338C13.7248 20.2338 14.1725 20.6815 14.1725 21.2338V25.9329C14.1725 26.5395 13.6368 27.0064 13.0359 26.9236L7.86346 26.2107C7.36862 26.1425 7 25.7195 7 25.22V21.2338C7 20.6815 7.44772 20.2338 8 20.2338H13.1725ZM13.0359 12.5764C13.6368 12.4936 14.1725 12.9605 14.1725 13.5671V18.3504C14.1725 18.9026 13.7248 19.3504 13.1725 19.3504H8C7.44772 19.3504 7 18.9026 7 18.3504V14.28C7 13.7805 7.36862 13.3575 7.86346 13.2893L13.0359 12.5764ZM23.5 20.2338C24.0523 20.2338 24.5 20.6815 24.5 21.2338V27.3527C24.5 27.9593 23.9644 28.4262 23.3635 28.3434L15.8247 27.3044C15.3299 27.2362 14.9612 26.8133 14.9612 26.3138V21.2338C14.9612 20.6815 15.409 20.2338 15.9612 20.2338H23.5ZM23.3635 11.1566C23.9644 11.0738 24.5 11.5407 24.5 12.1473V18.3504C24.5 18.9026 24.0523 19.3504 23.5 19.3504H15.9612C15.409 19.3504 14.9612 18.9026 14.9612 18.3504V13.1862C14.9612 12.6867 15.3299 12.2638 15.8247 12.1956L23.3635 11.1566Z" fill="#1B222F"/>
</svg>
